<?xml version="1.0" standalone="no"?>
<!DOCTYPE svg PUBLIC "-//W3C//DTD SVG 20010904//EN"
 "http://www.w3.org/TR/2001/REC-SVG-20010904/DTD/svg10.dtd">
<svg version="1.0" xmlns="http://www.w3.org/2000/svg"
 width="300.000000pt" height="307.000000pt" viewBox="0 0 300.000000 307.000000"
 preserveAspectRatio="xMidYMid meet">
<metadata>
Created by potrace 1.10, written by Peter Selinger 2001-2011
</metadata>
<g transform="translate(0.000000,307.000000) scale(0.100000,-0.100000)"
fill="#000000" stroke="none">
<path d="M1430 2680 l0 -67 57 -6 c210 -22 382 -250 346 -460 -23 -139 -108
-252 -230 -310 -63 -30 -76 -32 -173 -32 -97 0 -110 2 -173 32 -122 58 -206
171 -229 307 l-10 61 -64 0 -64 0 0 -30 c0 -56 30 -158 66 -226 41 -77 146
-184 215 -220 100 -50 224 -74 319 -61 51 8 60 6 132 -30 43 -21 80 -38 83
-38 3 0 5 33 5 73 l0 72 46 30 c162 106 251 358 199 560 -33 123 -126 254
-232 321 -59 39 -176 80 -245 87 l-48 5 0 -68z m150 10 c37 -11 93 -37 126
-58 55 -36 165 -145 162 -160 -1 -4 11 -33 26 -64 50 -104 58 -221 25 -353
-21 -83 -22 -84 -66 -105 -24 -11 -59 -24 -76 -27 l-32 -6 32 36 c64 73 101
200 88 300 -8 67 -54 187 -71 187 -8 0 -14 6 -14 13 0 21 -66 85 -124 121 -45
29 -69 38 -166 66 -41 11 -40 70 1 70 12 0 52 -9 89 -20z m-566 -603 c46 -142
130 -235 247 -276 53 -18 53 -19 24 -26 -16 -4 -34 -8 -40 -10 -5 -2 63 -3
153 -2 l163 2 -7 -30 c-3 -16 -7 -31 -9 -33 -20 -22 -197 -20 -261 3 -64 24
-79 35 -62 46 8 5 -4 9 -32 9 -38 0 -51 6 -85 38 -92 85 -154 188 -176 293
-10 46 -9 54 5 65 34 24 52 6 80 -79z m836 -166 c0 -15 -90 -110 -111 -116
-12 -4 -31 0 -46 11 l-27 17 30 24 c31 27 121 73 142 73 6 0 12 -4 12 -9z
m-162 -125 l44 -22 -26 -17 c-22 -15 -26 -25 -26 -62 0 -51 -7 -54 -64 -26
-21 11 -45 17 -53 14 -13 -5 -15 -1 -9 23 4 16 16 48 26 72 22 50 42 53 108
18z"/>
<path d="M1718 1412 l4 -69 -34 -21 c-46 -29 -128 -116 -160 -172 -28 -48 -68
-158 -68 -187 0 -29 16 -2 39 64 36 101 70 153 158 240 73 71 83 85 83 117 0
19 4 37 9 40 5 3 36 -5 69 -19 53 -21 68 -23 126 -17 36 5 66 5 66 0 0 -5 -9
-25 -19 -46 -18 -36 -21 -37 -77 -40 -32 -2 -61 -7 -64 -11 -3 -4 -26 -17 -51
-29 -91 -44 -178 -139 -202 -222 -10 -34 -22 -46 -77 -78 -62 -35 -65 -40 -68
-78 -4 -60 23 -176 58 -248 78 -158 235 -270 414 -294 l66 -9 0 69 0 68 -30 0
c-40 0 -142 35 -188 64 -49 31 -115 104 -142 156 -35 68 -52 170 -41 238 19
108 21 113 73 190 56 82 178 153 283 165 60 7 162 -10 219 -37 116 -53 216
-187 231 -311 l7 -55 64 0 64 0 0 30 c0 109 -65 256 -153 344 -63 62 -168 125
-242 145 -57 15 -184 23 -225 13 -29 -6 -45 -2 -107 30 -40 21 -76 38 -81 38
-5 0 -7 -31 -4 -68z m422 -43 c135 -43 272 -169 330 -304 24 -55 38 -155 22
-155 -6 0 -16 -2 -24 -5 -23 -9 -38 10 -53 68 -51 195 -202 323 -402 339 -16
2 -16 19 -2 51 10 22 17 24 53 21 22 -2 57 -9 76 -15z m-584 -496 c5 -86 34
-189 64 -224 11 -12 20 -25 20 -28 0 -13 72 -81 117 -111 26 -16 72 -37 102
-46 94 -27 101 -31 101 -59 0 -14 -7 -28 -15 -31 -23 -9 -114 15 -185 50 -67
32 -190 141 -190 168 0 9 -7 21 -15 28 -34 28 -82 214 -71 274 5 27 52 70 65
60 2 -2 5 -38 7 -81z"/>
</g>
</svg>
